<svg xmlns="http://www.w3.org/2000/svg" viewBox="0 0 500 400">
  <defs>
    <linearGradient id="bull-grad" x1="0%" y1="0%" x2="100%" y2="0%">
      <stop offset="0%" stop-color="#d80027" />
      <stop offset="100%" stop-color="#8a0019" />
    </linearGradient>
    <linearGradient id="wing-grad" x1="0%" y1="0%" x2="0%" y2="100%">
      <stop offset="0%" stop-color="#ffffff" />
      <stop offset="100%" stop-color="#ffd1ff" />
    </linearGradient>
    <filter id="glow" x="-20%" y="-20%" width="140%" height="140%">
      <feGaussianBlur stdDeviation="5" result="blur" />
      <feComposite in="SourceGraphic" in2="blur" operator="over" />
    </filter>
  </defs>

  <!-- Wings (Back) -->
  <g transform="translate(180, 120) rotate(-10)">
     <path d="M0,0 Q-50,-80 -100,0 Q-80,40 -20,60" fill="url(#wing-grad)" opacity="0.8">
        <animateTransform attributeName="transform" type="rotate" values="-5 0 60; 10 0 60; -5 0 60" dur="2s" repeatCount="indefinite"/>
     </path>
  </g>

  <!-- Body -->
  <g transform="translate(150, 150)">
    <!-- Main Body Shape (Dynamic charging pose) -->
    <path d="M0,50 Q20,0 80,-10 Q140,0 160,40 Q180,80 150,100 Q100,120 50,110 Q10,100 0,50 Z" fill="url(#bull-grad)" filter="url(#glow)"/>
    
    <!-- Muscular details -->
    <path d="M60,20 Q100,20 120,50" fill="none" stroke="#ff9a9e" stroke-width="3" opacity="0.5"/>
    <path d="M70,80 Q110,90 130,70" fill="none" stroke="#ff9a9e" stroke-width="3" opacity="0.5"/>
  </g>

  <!-- Head -->
  <g transform="translate(80, 160) rotate(-15)">
    <path d="M0,0 Q20,-10 40,0 L50,40 L30,60 L-10,50 Z" fill="url(#bull-grad)" />
    <!-- Horns -->
    <path d="M5,5 Q-10,-20 10,-40" fill="none" stroke="#ffeb3b" stroke-width="6" stroke-linecap="round"/>
    <path d="M35,5 Q55,-20 40,-40" fill="none" stroke="#ffeb3b" stroke-width="6" stroke-linecap="round"/>
    <!-- Eye -->
    <circle cx="15" cy="25" r="3" fill="#fff" />
  </g>

  <!-- Legs (Front) -->
  <g transform="translate(160, 250)">
     <path d="M20,0 Q20,30 0,50" fill="none" stroke="url(#bull-grad)" stroke-width="15" stroke-linecap="round"/>
     <path d="M60,0 Q80,30 70,60" fill="none" stroke="url(#bull-grad)" stroke-width="15" stroke-linecap="round"/>
  </g>
  <!-- Legs (Back) -->
  <g transform="translate(280, 240)">
     <path d="M0,0 Q-20,30 -10,60" fill="none" stroke="url(#bull-grad)" stroke-width="15" stroke-linecap="round"/>
  </g>

  <!-- Wings (Front) -->
  <g transform="translate(220, 110) rotate(-5)">
     <path d="M0,50 Q20,-60 120,-20 Q80,60 10,80" fill="url(#wing-grad)" stroke="#fff" stroke-width="2">
       <animateTransform attributeName="transform" type="rotate" values="5 0 80; -15 0 80; 5 0 80" dur="2s" repeatCount="indefinite"/>
     </path>
  </g>
  
  <!-- Speed lines -->
  <g transform="translate(350, 180)" opacity="0.6">
    <line x1="0" y1="0" x2="100" y2="0" stroke="#fff" stroke-width="2" stroke-dasharray="80 20">
       <animate attributeName="x1" from="0" to="50" dur="0.5s" repeatCount="indefinite"/>
    </line>
    <line x1="10" y1="30" x2="80" y2="30" stroke="#fff" stroke-width="1">
        <animate attributeName="x1" from="10" to="60" dur="0.6s" repeatCount="indefinite"/>
    </line>
  </g>

</svg>
